<mxfile host="app.diagrams.net" modified="2023-10-20T22:51:40.861Z" agent="Mozilla/5.0 (Windows NT 10.0; Win64; x64) AppleWebKit/537.36 (KHTML, like Gecko) Chrome/118.0.0.0 Safari/537.36 Edg/118.0.2088.57" etag="PtP3fBA3BYUOCUpkx12T" version="22.0.6" type="github">
  <diagram id="C5RBs43oDa-KdzZeNtuy" name="Page-1">
    <mxGraphModel dx="1326" dy="2117" grid="1" gridSize="10" guides="1" tooltips="1" connect="1" arrows="1" fold="1" page="1" pageScale="1" pageWidth="827" pageHeight="1169" math="0" shadow="0">
      <root>
        <mxCell id="WIyWlLk6GJQsqaUBKTNV-0" />
        <mxCell id="WIyWlLk6GJQsqaUBKTNV-1" parent="WIyWlLk6GJQsqaUBKTNV-0" />
        <mxCell id="xAbx2Bpbm73bnaDxQKKW-11" style="edgeStyle=orthogonalEdgeStyle;rounded=0;orthogonalLoop=1;jettySize=auto;html=1;exitX=0.5;exitY=1;exitDx=0;exitDy=0;entryX=0.5;entryY=0;entryDx=0;entryDy=0;" edge="1" parent="WIyWlLk6GJQsqaUBKTNV-1" source="xAbx2Bpbm73bnaDxQKKW-0">
          <mxGeometry relative="1" as="geometry">
            <mxPoint x="530" y="740" as="targetPoint" />
          </mxGeometry>
        </mxCell>
        <mxCell id="xAbx2Bpbm73bnaDxQKKW-0" value="Début" style="ellipse;whiteSpace=wrap;html=1;" vertex="1" parent="WIyWlLk6GJQsqaUBKTNV-1">
          <mxGeometry x="470" y="660" width="120" height="40" as="geometry" />
        </mxCell>
        <mxCell id="xAbx2Bpbm73bnaDxQKKW-12" style="edgeStyle=orthogonalEdgeStyle;rounded=0;orthogonalLoop=1;jettySize=auto;html=1;exitX=0.5;exitY=1;exitDx=0;exitDy=0;entryX=0.5;entryY=0;entryDx=0;entryDy=0;" edge="1" parent="WIyWlLk6GJQsqaUBKTNV-1" target="xAbx2Bpbm73bnaDxQKKW-16">
          <mxGeometry relative="1" as="geometry">
            <mxPoint x="530" y="780" as="sourcePoint" />
            <mxPoint x="530" y="810" as="targetPoint" />
          </mxGeometry>
        </mxCell>
        <mxCell id="xAbx2Bpbm73bnaDxQKKW-59" style="edgeStyle=orthogonalEdgeStyle;rounded=0;orthogonalLoop=1;jettySize=auto;html=1;exitX=1;exitY=0.5;exitDx=0;exitDy=0;entryX=1;entryY=0.5;entryDx=0;entryDy=0;" edge="1" parent="WIyWlLk6GJQsqaUBKTNV-1" source="xAbx2Bpbm73bnaDxQKKW-3" target="xAbx2Bpbm73bnaDxQKKW-22">
          <mxGeometry relative="1" as="geometry">
            <Array as="points">
              <mxPoint x="1300" y="1870" />
              <mxPoint x="1300" y="920" />
            </Array>
          </mxGeometry>
        </mxCell>
        <mxCell id="xAbx2Bpbm73bnaDxQKKW-3" value="Fin" style="ellipse;whiteSpace=wrap;html=1;" vertex="1" parent="WIyWlLk6GJQsqaUBKTNV-1">
          <mxGeometry x="1103" y="1850" width="120" height="40" as="geometry" />
        </mxCell>
        <mxCell id="xAbx2Bpbm73bnaDxQKKW-4" value="void setup" style="text;html=1;strokeColor=none;fillColor=none;align=center;verticalAlign=middle;whiteSpace=wrap;rounded=0;" vertex="1" parent="WIyWlLk6GJQsqaUBKTNV-1">
          <mxGeometry x="450" y="630" width="60" height="30" as="geometry" />
        </mxCell>
        <mxCell id="xAbx2Bpbm73bnaDxQKKW-5" value="void loop" style="text;html=1;strokeColor=none;fillColor=none;align=center;verticalAlign=middle;whiteSpace=wrap;rounded=0;" vertex="1" parent="WIyWlLk6GJQsqaUBKTNV-1">
          <mxGeometry x="450" y="900" width="60" height="30" as="geometry" />
        </mxCell>
        <mxCell id="xAbx2Bpbm73bnaDxQKKW-15" value="Initialisation des broches et du capteur de luminosité" style="shape=parallelogram;perimeter=parallelogramPerimeter;whiteSpace=wrap;html=1;fixedSize=1;" vertex="1" parent="WIyWlLk6GJQsqaUBKTNV-1">
          <mxGeometry x="430" y="740" width="200" height="40" as="geometry" />
        </mxCell>
        <mxCell id="xAbx2Bpbm73bnaDxQKKW-48" style="edgeStyle=orthogonalEdgeStyle;rounded=0;orthogonalLoop=1;jettySize=auto;html=1;exitX=0.5;exitY=1;exitDx=0;exitDy=0;entryX=0.5;entryY=0;entryDx=0;entryDy=0;" edge="1" parent="WIyWlLk6GJQsqaUBKTNV-1" source="xAbx2Bpbm73bnaDxQKKW-16" target="xAbx2Bpbm73bnaDxQKKW-22">
          <mxGeometry relative="1" as="geometry" />
        </mxCell>
        <mxCell id="xAbx2Bpbm73bnaDxQKKW-16" value="Initialisation de l&#39;écran LCD" style="shape=parallelogram;perimeter=parallelogramPerimeter;whiteSpace=wrap;html=1;fixedSize=1;" vertex="1" parent="WIyWlLk6GJQsqaUBKTNV-1">
          <mxGeometry x="430.5" y="820" width="199" height="40" as="geometry" />
        </mxCell>
        <mxCell id="xAbx2Bpbm73bnaDxQKKW-65" style="edgeStyle=orthogonalEdgeStyle;rounded=0;orthogonalLoop=1;jettySize=auto;html=1;exitX=0;exitY=0.5;exitDx=0;exitDy=0;entryX=0;entryY=0.5;entryDx=0;entryDy=0;" edge="1" parent="WIyWlLk6GJQsqaUBKTNV-1" source="xAbx2Bpbm73bnaDxQKKW-17" target="xAbx2Bpbm73bnaDxQKKW-22">
          <mxGeometry relative="1" as="geometry">
            <Array as="points">
              <mxPoint x="330" y="1260" />
              <mxPoint x="330" y="920" />
            </Array>
          </mxGeometry>
        </mxCell>
        <mxCell id="xAbx2Bpbm73bnaDxQKKW-17" value="Descendre les volets, éteindre la lumière" style="shape=process;whiteSpace=wrap;html=1;backgroundOutline=1;" vertex="1" parent="WIyWlLk6GJQsqaUBKTNV-1">
          <mxGeometry x="443" y="1240" width="170" height="40" as="geometry" />
        </mxCell>
        <mxCell id="xAbx2Bpbm73bnaDxQKKW-63" style="edgeStyle=orthogonalEdgeStyle;rounded=0;orthogonalLoop=1;jettySize=auto;html=1;exitX=0;exitY=0.5;exitDx=0;exitDy=0;entryX=0;entryY=0.5;entryDx=0;entryDy=0;" edge="1" parent="WIyWlLk6GJQsqaUBKTNV-1" source="xAbx2Bpbm73bnaDxQKKW-18" target="xAbx2Bpbm73bnaDxQKKW-22">
          <mxGeometry relative="1" as="geometry">
            <Array as="points">
              <mxPoint x="330" y="1430" />
              <mxPoint x="330" y="920" />
            </Array>
          </mxGeometry>
        </mxCell>
        <mxCell id="xAbx2Bpbm73bnaDxQKKW-18" value="Descendre les volets, allumer la lumière" style="shape=process;whiteSpace=wrap;html=1;backgroundOutline=1;" vertex="1" parent="WIyWlLk6GJQsqaUBKTNV-1">
          <mxGeometry x="658" y="1410" width="170" height="40" as="geometry" />
        </mxCell>
        <mxCell id="xAbx2Bpbm73bnaDxQKKW-62" style="edgeStyle=orthogonalEdgeStyle;rounded=0;orthogonalLoop=1;jettySize=auto;html=1;exitX=0;exitY=0.5;exitDx=0;exitDy=0;entryX=0;entryY=0.5;entryDx=0;entryDy=0;" edge="1" parent="WIyWlLk6GJQsqaUBKTNV-1" source="xAbx2Bpbm73bnaDxQKKW-19" target="xAbx2Bpbm73bnaDxQKKW-22">
          <mxGeometry relative="1" as="geometry">
            <mxPoint x="360" y="959.9999999999998" as="targetPoint" />
            <Array as="points">
              <mxPoint x="330" y="1600" />
              <mxPoint x="330" y="920" />
            </Array>
          </mxGeometry>
        </mxCell>
        <mxCell id="xAbx2Bpbm73bnaDxQKKW-19" value="Monter les volets, éteindre la lumière" style="shape=process;whiteSpace=wrap;html=1;backgroundOutline=1;" vertex="1" parent="WIyWlLk6GJQsqaUBKTNV-1">
          <mxGeometry x="868" y="1580" width="170" height="40" as="geometry" />
        </mxCell>
        <mxCell id="xAbx2Bpbm73bnaDxQKKW-57" style="edgeStyle=orthogonalEdgeStyle;rounded=0;orthogonalLoop=1;jettySize=auto;html=1;exitX=0.5;exitY=1;exitDx=0;exitDy=0;entryX=0.5;entryY=0;entryDx=0;entryDy=0;" edge="1" parent="WIyWlLk6GJQsqaUBKTNV-1" source="xAbx2Bpbm73bnaDxQKKW-21" target="xAbx2Bpbm73bnaDxQKKW-3">
          <mxGeometry relative="1" as="geometry" />
        </mxCell>
        <mxCell id="xAbx2Bpbm73bnaDxQKKW-21" value="Monter les volets, éteindre la lumière" style="shape=process;whiteSpace=wrap;html=1;backgroundOutline=1;" vertex="1" parent="WIyWlLk6GJQsqaUBKTNV-1">
          <mxGeometry x="1078" y="1760" width="170" height="40" as="geometry" />
        </mxCell>
        <mxCell id="xAbx2Bpbm73bnaDxQKKW-27" style="edgeStyle=orthogonalEdgeStyle;rounded=0;orthogonalLoop=1;jettySize=auto;html=1;entryX=0.5;entryY=0;entryDx=0;entryDy=0;" edge="1" parent="WIyWlLk6GJQsqaUBKTNV-1" source="xAbx2Bpbm73bnaDxQKKW-22" target="xAbx2Bpbm73bnaDxQKKW-26">
          <mxGeometry relative="1" as="geometry" />
        </mxCell>
        <mxCell id="xAbx2Bpbm73bnaDxQKKW-22" value="Lire les valeurs des capteurs de présence et de luminosité" style="rounded=0;whiteSpace=wrap;html=1;" vertex="1" parent="WIyWlLk6GJQsqaUBKTNV-1">
          <mxGeometry x="437" y="900" width="186" height="40" as="geometry" />
        </mxCell>
        <mxCell id="xAbx2Bpbm73bnaDxQKKW-49" style="edgeStyle=orthogonalEdgeStyle;rounded=0;orthogonalLoop=1;jettySize=auto;html=1;exitX=1;exitY=0.5;exitDx=0;exitDy=0;entryX=0.5;entryY=0;entryDx=0;entryDy=0;" edge="1" parent="WIyWlLk6GJQsqaUBKTNV-1" source="xAbx2Bpbm73bnaDxQKKW-23" target="xAbx2Bpbm73bnaDxQKKW-37">
          <mxGeometry relative="1" as="geometry" />
        </mxCell>
        <mxCell id="xAbx2Bpbm73bnaDxQKKW-23" value="Si pas de luminosité et pas de présence" style="rhombus;whiteSpace=wrap;html=1;" vertex="1" parent="WIyWlLk6GJQsqaUBKTNV-1">
          <mxGeometry x="411" y="1140" width="238" height="60" as="geometry" />
        </mxCell>
        <mxCell id="xAbx2Bpbm73bnaDxQKKW-26" value="Calculer la luminosité en pourcentage" style="rounded=0;whiteSpace=wrap;html=1;" vertex="1" parent="WIyWlLk6GJQsqaUBKTNV-1">
          <mxGeometry x="450" y="980" width="160" height="40" as="geometry" />
        </mxCell>
        <mxCell id="xAbx2Bpbm73bnaDxQKKW-67" style="edgeStyle=orthogonalEdgeStyle;rounded=0;orthogonalLoop=1;jettySize=auto;html=1;exitX=0.5;exitY=1;exitDx=0;exitDy=0;entryX=0.5;entryY=0;entryDx=0;entryDy=0;" edge="1" parent="WIyWlLk6GJQsqaUBKTNV-1" source="xAbx2Bpbm73bnaDxQKKW-31" target="xAbx2Bpbm73bnaDxQKKW-23">
          <mxGeometry relative="1" as="geometry" />
        </mxCell>
        <mxCell id="xAbx2Bpbm73bnaDxQKKW-31" value="Initialiser la valeur de&amp;nbsp; luminosité en pourcentage" style="shape=parallelogram;perimeter=parallelogramPerimeter;whiteSpace=wrap;html=1;fixedSize=1;" vertex="1" parent="WIyWlLk6GJQsqaUBKTNV-1">
          <mxGeometry x="410" y="1060" width="240" height="40" as="geometry" />
        </mxCell>
        <mxCell id="xAbx2Bpbm73bnaDxQKKW-39" style="edgeStyle=orthogonalEdgeStyle;rounded=0;orthogonalLoop=1;jettySize=auto;html=1;exitX=0.5;exitY=1;exitDx=0;exitDy=0;entryX=0.5;entryY=0;entryDx=0;entryDy=0;" edge="1" parent="WIyWlLk6GJQsqaUBKTNV-1" source="xAbx2Bpbm73bnaDxQKKW-37" target="xAbx2Bpbm73bnaDxQKKW-18">
          <mxGeometry relative="1" as="geometry" />
        </mxCell>
        <mxCell id="xAbx2Bpbm73bnaDxQKKW-51" style="edgeStyle=orthogonalEdgeStyle;rounded=0;orthogonalLoop=1;jettySize=auto;html=1;exitX=1;exitY=0.5;exitDx=0;exitDy=0;entryX=0.5;entryY=0;entryDx=0;entryDy=0;" edge="1" parent="WIyWlLk6GJQsqaUBKTNV-1" source="xAbx2Bpbm73bnaDxQKKW-37" target="xAbx2Bpbm73bnaDxQKKW-41">
          <mxGeometry relative="1" as="geometry" />
        </mxCell>
        <mxCell id="xAbx2Bpbm73bnaDxQKKW-37" value="Si pas de luminosité et présence" style="rhombus;whiteSpace=wrap;html=1;" vertex="1" parent="WIyWlLk6GJQsqaUBKTNV-1">
          <mxGeometry x="638" y="1310" width="210" height="60" as="geometry" />
        </mxCell>
        <mxCell id="xAbx2Bpbm73bnaDxQKKW-40" value="oui" style="text;html=1;strokeColor=none;fillColor=none;align=center;verticalAlign=middle;whiteSpace=wrap;rounded=0;" vertex="1" parent="WIyWlLk6GJQsqaUBKTNV-1">
          <mxGeometry x="764" y="1380" width="60" height="30" as="geometry" />
        </mxCell>
        <mxCell id="xAbx2Bpbm73bnaDxQKKW-43" style="edgeStyle=orthogonalEdgeStyle;rounded=0;orthogonalLoop=1;jettySize=auto;html=1;exitX=0.5;exitY=1;exitDx=0;exitDy=0;entryX=0.5;entryY=0;entryDx=0;entryDy=0;" edge="1" parent="WIyWlLk6GJQsqaUBKTNV-1" source="xAbx2Bpbm73bnaDxQKKW-41" target="xAbx2Bpbm73bnaDxQKKW-19">
          <mxGeometry relative="1" as="geometry" />
        </mxCell>
        <mxCell id="xAbx2Bpbm73bnaDxQKKW-52" style="edgeStyle=orthogonalEdgeStyle;rounded=0;orthogonalLoop=1;jettySize=auto;html=1;exitX=1;exitY=0.5;exitDx=0;exitDy=0;entryX=0.5;entryY=0;entryDx=0;entryDy=0;" edge="1" parent="WIyWlLk6GJQsqaUBKTNV-1" source="xAbx2Bpbm73bnaDxQKKW-41" target="xAbx2Bpbm73bnaDxQKKW-45">
          <mxGeometry relative="1" as="geometry" />
        </mxCell>
        <mxCell id="xAbx2Bpbm73bnaDxQKKW-41" value="Si luminosité et pas de présence" style="rhombus;whiteSpace=wrap;html=1;" vertex="1" parent="WIyWlLk6GJQsqaUBKTNV-1">
          <mxGeometry x="848" y="1480" width="210" height="60" as="geometry" />
        </mxCell>
        <mxCell id="xAbx2Bpbm73bnaDxQKKW-44" value="oui" style="text;html=1;strokeColor=none;fillColor=none;align=center;verticalAlign=middle;whiteSpace=wrap;rounded=0;" vertex="1" parent="WIyWlLk6GJQsqaUBKTNV-1">
          <mxGeometry x="943" y="1550" width="60" height="30" as="geometry" />
        </mxCell>
        <mxCell id="xAbx2Bpbm73bnaDxQKKW-47" style="edgeStyle=orthogonalEdgeStyle;rounded=0;orthogonalLoop=1;jettySize=auto;html=1;exitX=0.5;exitY=1;exitDx=0;exitDy=0;entryX=0.5;entryY=0;entryDx=0;entryDy=0;" edge="1" parent="WIyWlLk6GJQsqaUBKTNV-1" source="xAbx2Bpbm73bnaDxQKKW-45" target="xAbx2Bpbm73bnaDxQKKW-21">
          <mxGeometry relative="1" as="geometry" />
        </mxCell>
        <mxCell id="xAbx2Bpbm73bnaDxQKKW-74" style="edgeStyle=orthogonalEdgeStyle;rounded=0;orthogonalLoop=1;jettySize=auto;html=1;exitX=1;exitY=0.5;exitDx=0;exitDy=0;entryX=1;entryY=0.5;entryDx=0;entryDy=0;" edge="1" parent="WIyWlLk6GJQsqaUBKTNV-1" source="xAbx2Bpbm73bnaDxQKKW-45" target="xAbx2Bpbm73bnaDxQKKW-22">
          <mxGeometry relative="1" as="geometry">
            <Array as="points">
              <mxPoint x="1300" y="1690" />
              <mxPoint x="1300" y="920" />
            </Array>
          </mxGeometry>
        </mxCell>
        <mxCell id="xAbx2Bpbm73bnaDxQKKW-45" value="Si luminosité et pas de présence" style="rhombus;whiteSpace=wrap;html=1;" vertex="1" parent="WIyWlLk6GJQsqaUBKTNV-1">
          <mxGeometry x="1058" y="1660" width="210" height="60" as="geometry" />
        </mxCell>
        <mxCell id="xAbx2Bpbm73bnaDxQKKW-53" value="non" style="text;html=1;strokeColor=none;fillColor=none;align=center;verticalAlign=middle;whiteSpace=wrap;rounded=0;" vertex="1" parent="WIyWlLk6GJQsqaUBKTNV-1">
          <mxGeometry x="618" y="1140" width="60" height="30" as="geometry" />
        </mxCell>
        <mxCell id="xAbx2Bpbm73bnaDxQKKW-54" value="non" style="text;html=1;strokeColor=none;fillColor=none;align=center;verticalAlign=middle;whiteSpace=wrap;rounded=0;" vertex="1" parent="WIyWlLk6GJQsqaUBKTNV-1">
          <mxGeometry x="822" y="1310" width="60" height="30" as="geometry" />
        </mxCell>
        <mxCell id="xAbx2Bpbm73bnaDxQKKW-55" value="non" style="text;html=1;strokeColor=none;fillColor=none;align=center;verticalAlign=middle;whiteSpace=wrap;rounded=0;" vertex="1" parent="WIyWlLk6GJQsqaUBKTNV-1">
          <mxGeometry x="1038" y="1480" width="60" height="30" as="geometry" />
        </mxCell>
        <mxCell id="xAbx2Bpbm73bnaDxQKKW-69" style="edgeStyle=orthogonalEdgeStyle;rounded=0;orthogonalLoop=1;jettySize=auto;html=1;exitX=0.5;exitY=1;exitDx=0;exitDy=0;entryX=0.516;entryY=0.02;entryDx=0;entryDy=0;entryPerimeter=0;" edge="1" parent="WIyWlLk6GJQsqaUBKTNV-1" source="xAbx2Bpbm73bnaDxQKKW-23" target="xAbx2Bpbm73bnaDxQKKW-17">
          <mxGeometry relative="1" as="geometry" />
        </mxCell>
        <mxCell id="xAbx2Bpbm73bnaDxQKKW-70" value="delay(10000)" style="text;html=1;strokeColor=none;fillColor=none;align=center;verticalAlign=middle;whiteSpace=wrap;rounded=0;" vertex="1" parent="WIyWlLk6GJQsqaUBKTNV-1">
          <mxGeometry x="357" y="890" width="80" height="30" as="geometry" />
        </mxCell>
        <mxCell id="xAbx2Bpbm73bnaDxQKKW-71" value="delay(10000)" style="text;html=1;strokeColor=none;fillColor=none;align=center;verticalAlign=middle;whiteSpace=wrap;rounded=0;" vertex="1" parent="WIyWlLk6GJQsqaUBKTNV-1">
          <mxGeometry x="623" y="890" width="80" height="30" as="geometry" />
        </mxCell>
        <mxCell id="xAbx2Bpbm73bnaDxQKKW-72" value="void loop" style="text;html=1;strokeColor=none;fillColor=none;align=center;verticalAlign=middle;whiteSpace=wrap;rounded=0;" vertex="1" parent="WIyWlLk6GJQsqaUBKTNV-1">
          <mxGeometry x="470" y="870" width="60" height="30" as="geometry" />
        </mxCell>
        <mxCell id="xAbx2Bpbm73bnaDxQKKW-73" value="oui" style="text;html=1;strokeColor=none;fillColor=none;align=center;verticalAlign=middle;whiteSpace=wrap;rounded=0;" vertex="1" parent="WIyWlLk6GJQsqaUBKTNV-1">
          <mxGeometry x="1163" y="1730" width="60" height="30" as="geometry" />
        </mxCell>
      </root>
    </mxGraphModel>
  </diagram>
</mxfile>
